<svg id="svg" version="1.1" xmlns="http://www.w3.org/2000/svg" xmlns:xlink="http://www.w3.org/1999/xlink" width="400" height="154.41696113074204" viewBox="0, 0, 400,154.41696113074204"><g id="svgg"><path id="path0" d="M110.443 0.163 C 107.646 0.673,105.630 1.787,103.458 4.023 C 102.656 4.849,102.000 5.585,102.000 5.659 C 102.000 5.733,101.740 6.224,101.423 6.751 C 101.106 7.278,100.722 8.094,100.571 8.563 C 100.419 9.033,100.203 9.567,100.091 9.750 C 99.003 11.519,98.897 18.731,99.925 21.083 C 100.045 21.358,100.386 22.183,100.683 22.917 C 101.737 25.523,103.946 28.234,105.792 29.187 C 106.181 29.388,106.500 29.610,106.500 29.681 C 106.500 30.136,109.593 31.082,111.667 31.261 C 120.289 32.004,127.205 22.525,125.437 12.386 C 125.052 10.173,124.001 7.167,123.496 6.833 C 123.427 6.787,123.105 6.297,122.781 5.744 C 120.495 1.837,114.971 -0.662,110.443 0.163 M164.172 1.852 C 163.396 2.307,162.721 2.743,162.672 2.821 C 162.623 2.898,162.171 3.186,161.667 3.461 C 160.843 3.909,159.464 4.734,156.559 6.515 C 156.022 6.844,154.983 7.467,154.250 7.899 C 153.517 8.332,152.429 8.993,151.833 9.370 C 151.237 9.747,150.037 10.425,149.167 10.878 C 148.296 11.331,147.471 11.790,147.333 11.899 C 147.196 12.008,146.821 12.215,146.500 12.360 C 145.329 12.889,142.389 15.247,140.585 17.105 C 139.025 18.712,135.667 23.107,135.667 23.542 C 135.667 23.621,135.449 23.963,135.182 24.301 C 134.717 24.892,133.884 26.411,132.276 29.599 C 131.530 31.080,130.549 33.448,129.832 35.500 C 129.624 36.096,129.401 36.621,129.338 36.667 C 129.156 36.798,128.080 40.328,127.332 43.250 C 126.956 44.717,126.604 46.029,126.549 46.167 C 126.494 46.304,126.432 46.492,126.410 46.583 C 126.388 46.675,126.253 47.200,126.111 47.750 C 123.886 56.346,123.463 67.385,125.031 75.958 C 125.741 79.841,125.999 80.530,126.247 79.209 C 126.311 78.865,126.416 78.546,126.480 78.500 C 126.544 78.454,126.845 77.517,127.148 76.417 C 128.042 73.173,129.024 69.948,129.254 69.500 C 129.371 69.271,129.697 68.446,129.978 67.667 C 130.260 66.887,130.867 65.259,131.328 64.047 C 131.789 62.835,132.167 61.791,132.167 61.727 C 132.167 61.662,132.268 61.491,132.392 61.346 C 132.516 61.202,132.902 60.408,133.251 59.583 C 134.357 56.963,137.829 50.072,138.163 49.833 C 138.228 49.788,138.587 49.225,138.962 48.583 C 140.755 45.518,143.231 41.727,144.133 40.667 C 144.405 40.346,144.993 39.548,145.439 38.894 C 145.885 38.240,146.523 37.377,146.858 36.977 C 147.192 36.577,148.094 35.462,148.862 34.500 C 149.630 33.537,150.744 32.163,151.337 31.445 C 151.931 30.727,152.493 30.014,152.585 29.861 C 152.678 29.708,153.031 29.296,153.369 28.944 C 153.707 28.592,154.231 27.968,154.533 27.556 C 154.836 27.144,155.479 26.351,155.963 25.794 C 156.447 25.237,157.172 24.286,157.575 23.682 C 157.978 23.078,158.449 22.433,158.621 22.250 C 159.034 21.810,161.147 18.568,161.380 18.016 C 161.481 17.778,161.701 17.427,161.868 17.236 C 162.255 16.795,163.665 13.610,164.150 12.083 C 164.353 11.442,164.620 10.729,164.743 10.500 C 165.197 9.650,165.864 5.717,166.092 2.542 C 166.226 0.661,166.213 0.656,164.172 1.852 M51.000 12.976 C 51.000 13.831,52.297 18.632,52.830 19.750 C 53.005 20.117,53.313 20.867,53.515 21.417 C 53.944 22.585,55.621 26.195,55.797 26.327 C 55.863 26.376,56.098 26.754,56.319 27.167 C 56.754 27.976,58.344 30.530,58.498 30.667 C 58.709 30.853,59.772 32.264,60.083 32.769 C 60.923 34.133,68.662 41.985,70.417 43.253 C 70.783 43.518,71.581 44.188,72.188 44.742 C 72.796 45.297,73.728 46.087,74.260 46.500 C 74.791 46.913,75.456 47.449,75.738 47.693 C 76.020 47.937,77.675 49.310,79.417 50.744 C 81.158 52.178,82.846 53.594,83.167 53.890 C 83.487 54.186,84.275 54.847,84.917 55.358 C 85.558 55.870,86.233 56.459,86.417 56.668 C 86.600 56.877,87.125 57.345,87.583 57.708 C 89.954 59.585,100.288 69.803,101.532 71.500 C 101.768 71.821,102.363 72.508,102.855 73.026 C 103.347 73.544,104.000 74.294,104.306 74.693 C 104.612 75.091,105.156 75.754,105.516 76.167 C 107.072 77.948,112.009 84.544,113.252 86.500 C 113.689 87.188,114.230 87.975,114.454 88.250 C 114.678 88.525,115.412 89.650,116.084 90.750 C 116.756 91.850,117.452 92.938,117.630 93.167 C 117.808 93.396,118.499 94.558,119.165 95.750 C 119.832 96.942,120.430 97.954,120.496 98.000 C 120.595 98.069,121.467 99.675,122.989 102.589 C 123.134 102.867,123.346 103.204,123.461 103.339 C 123.576 103.473,124.239 104.746,124.935 106.167 C 125.631 107.587,126.286 108.805,126.392 108.872 C 126.497 108.940,126.522 108.996,126.446 108.997 C 126.371 108.999,126.427 109.118,126.571 109.262 C 126.715 109.406,126.833 109.638,126.833 109.778 C 126.833 110.105,127.360 111.000,127.553 111.000 C 127.818 111.000,127.576 97.315,127.275 95.333 C 126.874 92.693,126.636 91.435,126.502 91.250 C 126.435 91.158,126.291 90.596,126.181 90.000 C 125.675 87.265,123.869 80.341,123.495 79.703 C 123.403 79.546,122.887 78.067,122.349 76.417 C 121.337 73.315,120.847 71.977,120.670 71.833 C 120.614 71.787,120.356 71.188,120.097 70.500 C 119.838 69.813,119.446 68.774,119.226 68.193 C 119.007 67.611,118.480 66.411,118.056 65.526 C 117.632 64.641,116.857 63.017,116.334 61.917 C 115.037 59.191,112.192 53.788,111.946 53.583 C 111.836 53.492,111.656 53.229,111.546 53.000 C 111.172 52.221,109.251 49.011,108.949 48.658 C 108.783 48.465,108.411 47.919,108.122 47.445 C 107.586 46.566,106.226 44.609,105.768 44.056 C 105.628 43.888,105.004 43.068,104.382 42.234 C 101.689 38.628,96.685 33.213,94.500 31.539 C 94.179 31.294,93.400 30.654,92.768 30.118 C 91.555 29.088,88.292 26.833,88.014 26.833 C 87.924 26.833,87.790 26.726,87.717 26.596 C 87.573 26.340,83.684 24.359,82.583 23.981 C 82.217 23.855,81.878 23.701,81.831 23.638 C 81.700 23.464,79.355 22.705,77.802 22.334 C 76.448 22.011,73.464 21.004,72.789 20.643 C 72.436 20.454,69.618 19.431,67.570 18.749 C 66.921 18.532,65.721 18.078,64.903 17.740 C 63.521 17.167,62.450 16.782,58.583 15.468 C 57.758 15.188,57.046 14.905,57.000 14.839 C 56.954 14.773,56.429 14.550,55.833 14.343 C 52.573 13.212,51.555 12.854,51.292 12.748 C 51.070 12.659,51.000 12.714,51.000 12.976 " stroke="none" fill="#cc9c3c" fill-rule="evenodd"></path><path id="path1" d="M176.833 73.000 L 176.833 116.167 179.833 116.167 L 182.833 116.167 182.833 96.083 L 182.833 76.000 211.917 76.000 L 241.000 76.000 241.003 95.875 C 241.004 106.806,241.066 115.846,241.140 115.962 C 241.243 116.124,241.967 116.164,244.179 116.129 L 247.083 116.083 247.125 72.958 L 247.167 29.833 244.084 29.833 L 241.000 29.833 241.000 49.833 L 241.000 69.833 211.917 69.833 L 182.833 69.833 182.833 49.833 L 182.833 29.833 179.833 29.833 L 176.833 29.833 176.833 73.000 M291.169 32.281 C 290.117 32.414,289.217 32.584,289.169 32.658 C 289.122 32.732,288.746 32.845,288.333 32.910 C 286.522 33.193,282.045 34.522,280.500 35.235 C 278.513 36.152,274.782 38.173,274.435 38.520 C 274.209 38.746,273.812 39.039,273.553 39.171 C 270.885 40.532,262.500 48.999,262.500 50.332 C 262.500 50.411,262.222 50.836,261.883 51.279 C 261.257 52.095,259.167 56.162,259.167 56.563 C 259.167 56.684,259.026 56.945,258.853 57.144 C 258.056 58.063,256.675 63.403,255.981 68.250 C 255.718 70.088,255.603 76.169,255.826 76.393 C 255.922 76.489,256.000 76.852,256.000 77.201 C 256.000 79.778,258.074 88.266,258.842 88.833 C 258.904 88.879,259.013 89.104,259.083 89.333 C 259.367 90.256,261.387 94.159,261.764 94.513 C 261.985 94.721,262.167 94.957,262.167 95.037 C 262.167 95.215,264.461 98.621,264.632 98.696 C 264.700 98.726,265.195 99.275,265.731 99.917 C 267.709 102.280,271.018 105.174,274.355 107.460 C 277.231 109.430,282.372 111.687,285.833 112.500 C 286.337 112.618,286.788 112.772,286.834 112.843 C 286.950 113.019,290.391 113.620,292.476 113.828 C 293.521 113.932,300.113 114.000,309.184 114.000 L 324.167 114.000 324.167 110.917 L 324.167 107.833 309.006 107.833 C 292.716 107.833,290.627 107.737,288.500 106.883 C 288.362 106.828,288.175 106.762,288.083 106.737 C 286.830 106.395,284.237 105.548,283.439 105.222 C 281.648 104.489,280.500 103.942,280.500 103.823 C 280.500 103.759,280.260 103.608,279.966 103.486 C 279.672 103.364,278.770 102.830,277.961 102.299 C 277.152 101.768,276.431 101.333,276.359 101.333 C 276.286 101.333,276.075 101.165,275.889 100.958 C 275.703 100.752,275.117 100.246,274.586 99.833 C 273.597 99.065,269.511 95.014,269.504 94.795 C 269.497 94.584,267.799 92.333,267.646 92.333 C 267.566 92.333,267.500 92.253,267.500 92.155 C 267.500 92.057,267.174 91.438,266.776 90.780 C 266.378 90.122,265.767 88.946,265.418 88.167 C 265.069 87.388,264.726 86.712,264.656 86.666 C 264.083 86.286,262.586 80.478,262.089 76.708 L 261.996 76.000 292.415 76.000 L 322.833 76.000 322.833 72.917 L 322.833 69.833 292.427 69.833 L 262.021 69.833 262.102 69.208 C 262.708 64.542,263.516 61.698,265.240 58.167 C 266.742 55.092,267.491 53.872,269.201 51.721 C 269.732 51.052,270.167 50.474,270.167 50.435 C 270.167 49.565,277.207 43.903,280.083 42.461 C 281.000 42.001,281.787 41.567,281.833 41.497 C 282.108 41.073,287.011 39.459,289.500 38.973 C 290.096 38.856,290.621 38.715,290.667 38.659 C 291.039 38.202,294.017 38.101,308.875 38.041 L 324.167 37.980 324.167 34.990 L 324.167 32.000 308.625 32.019 C 296.095 32.034,292.712 32.085,291.169 32.281 M368.667 32.088 C 368.529 32.116,367.648 32.228,366.708 32.338 C 365.769 32.448,365.000 32.604,365.000 32.685 C 365.000 32.767,364.831 32.833,364.625 32.834 C 362.035 32.835,351.474 37.029,350.333 38.509 C 350.287 38.568,350.065 38.714,349.839 38.834 C 347.194 40.228,342.036 45.113,339.549 48.577 C 338.888 49.497,338.287 50.325,338.213 50.417 C 336.387 52.676,333.799 58.662,332.809 62.917 C 332.617 63.742,332.404 64.492,332.335 64.583 C 331.368 65.873,331.353 80.659,332.318 81.333 C 332.384 81.379,332.531 81.867,332.646 82.417 C 333.512 86.562,336.797 94.353,338.162 95.500 C 338.330 95.641,339.911 97.893,340.003 98.122 C 340.824 100.173,348.736 106.884,352.750 108.935 C 353.575 109.357,354.363 109.797,354.500 109.915 C 355.067 110.398,360.416 112.296,362.042 112.590 C 362.385 112.653,362.667 112.763,362.667 112.835 C 362.667 113.010,365.262 113.477,367.830 113.764 C 369.461 113.946,373.182 113.997,384.875 113.998 L 399.833 114.000 399.833 110.917 L 399.833 107.833 384.871 107.833 C 375.689 107.833,369.362 107.767,368.496 107.663 C 366.592 107.433,364.544 107.035,363.833 106.757 C 363.512 106.632,362.425 106.269,361.417 105.951 C 359.503 105.347,356.717 104.203,356.316 103.858 C 356.188 103.748,355.183 103.128,354.083 102.480 C 352.983 101.833,351.783 101.021,351.417 100.677 C 351.050 100.332,350.450 99.837,350.083 99.576 C 349.307 99.025,345.500 95.169,345.500 94.935 C 345.500 94.847,345.131 94.352,344.681 93.834 C 343.830 92.856,341.790 89.571,341.479 88.677 C 341.381 88.397,341.244 88.167,341.175 88.167 C 340.746 88.167,338.339 80.716,338.335 79.375 C 338.334 79.169,338.268 79.000,338.188 79.000 C 337.538 79.000,337.501 67.449,338.149 67.002 C 338.217 66.955,338.399 66.268,338.552 65.474 C 338.980 63.264,340.833 57.833,341.159 57.833 C 341.223 57.833,341.456 57.440,341.675 56.958 C 341.894 56.477,342.432 55.496,342.870 54.778 C 343.308 54.061,343.667 53.409,343.667 53.330 C 343.667 53.250,343.800 53.088,343.963 52.968 C 344.127 52.848,344.710 52.150,345.259 51.417 C 346.544 49.703,349.192 47.059,351.000 45.688 C 351.779 45.096,352.477 44.512,352.550 44.389 C 352.623 44.267,352.753 44.167,352.838 44.167 C 352.924 44.167,353.420 43.894,353.941 43.561 C 354.462 43.227,355.494 42.656,356.236 42.291 C 356.977 41.925,357.627 41.559,357.679 41.475 C 357.968 41.020,364.921 38.833,366.078 38.833 C 366.295 38.833,366.497 38.765,366.528 38.682 C 366.697 38.221,369.716 38.116,384.625 38.048 L 399.833 37.979 399.833 34.990 L 399.833 32.000 384.375 32.019 C 375.873 32.030,368.804 32.061,368.667 32.088 M31.167 41.665 C 31.167 42.474,32.382 45.011,33.910 47.392 C 34.493 48.301,37.244 51.165,37.980 51.630 C 38.220 51.782,39.000 52.339,39.713 52.870 C 40.426 53.400,41.037 53.833,41.071 53.833 C 41.105 53.833,41.618 54.128,42.210 54.488 C 42.803 54.848,43.802 55.376,44.429 55.660 C 45.057 55.945,45.614 56.248,45.667 56.334 C 45.769 56.499,48.234 57.608,50.750 58.621 C 51.575 58.953,52.400 59.318,52.583 59.433 C 52.968 59.673,57.359 61.398,59.000 61.952 C 59.413 62.092,59.790 62.268,59.838 62.345 C 59.887 62.421,61.462 63.057,63.338 63.758 C 65.215 64.459,66.900 65.123,67.083 65.233 C 67.267 65.344,68.129 65.719,69.000 66.067 C 69.871 66.415,71.183 66.950,71.917 67.255 C 72.650 67.561,73.418 67.858,73.624 67.916 C 73.830 67.974,74.092 68.111,74.207 68.220 C 74.322 68.329,74.829 68.597,75.333 68.817 C 75.837 69.036,76.887 69.498,77.667 69.843 C 78.446 70.187,79.333 70.563,79.639 70.677 C 79.945 70.792,80.289 70.979,80.403 71.094 C 80.518 71.208,81.877 71.911,83.423 72.655 C 84.970 73.399,86.276 74.073,86.326 74.151 C 86.376 74.230,87.129 74.668,88.000 75.125 C 90.927 76.661,91.494 76.979,92.040 77.386 C 92.339 77.609,93.352 78.227,94.292 78.759 C 95.232 79.291,96.133 79.844,96.293 79.988 C 96.722 80.373,99.974 82.500,100.134 82.500 C 100.209 82.500,100.491 82.713,100.760 82.974 C 101.030 83.235,101.925 83.907,102.750 84.467 C 103.575 85.028,104.505 85.721,104.818 86.007 C 105.130 86.294,105.655 86.701,105.984 86.911 C 106.314 87.121,107.627 88.165,108.902 89.230 C 111.750 91.608,112.206 91.775,111.000 90.000 C 110.633 89.460,110.333 88.968,110.333 88.906 C 110.333 88.747,109.175 87.161,108.697 86.667 C 108.475 86.438,108.236 86.096,108.164 85.908 C 108.092 85.720,107.145 84.408,106.058 82.992 C 104.972 81.575,103.870 80.104,103.611 79.721 C 103.351 79.338,103.046 78.989,102.932 78.946 C 102.819 78.902,102.174 78.139,101.500 77.250 C 100.826 76.361,100.185 75.599,100.075 75.557 C 99.966 75.515,99.480 74.979,98.997 74.365 C 98.002 73.103,97.751 72.840,92.602 67.667 C 88.562 63.608,86.134 61.304,85.083 60.531 C 84.717 60.261,84.117 59.722,83.750 59.334 C 83.383 58.945,82.885 58.503,82.643 58.351 C 82.401 58.200,81.501 57.462,80.643 56.711 C 79.785 55.960,77.883 54.367,76.417 53.169 C 74.950 51.972,73.525 50.798,73.250 50.560 C 72.975 50.322,72.327 49.762,71.811 49.314 C 71.294 48.866,70.804 48.500,70.722 48.500 C 70.639 48.500,70.199 48.123,69.744 47.662 C 69.289 47.201,68.429 46.439,67.833 45.969 C 67.237 45.498,66.367 44.732,65.899 44.265 C 65.431 43.799,64.596 43.023,64.043 42.542 L 63.037 41.667 53.269 41.667 C 47.036 41.667,43.500 41.608,43.500 41.504 C 43.500 41.402,41.227 41.342,37.333 41.342 C 31.344 41.342,31.167 41.351,31.167 41.665 M54.250 66.925 C 52.417 67.508,50.783 68.066,50.621 68.163 C 50.458 68.261,48.395 68.948,46.037 69.690 C 43.679 70.431,41.712 71.089,41.667 71.150 C 41.621 71.212,39.596 71.888,37.167 72.652 C 34.737 73.416,32.712 74.091,32.667 74.152 C 32.621 74.214,30.596 74.887,28.167 75.650 C 25.738 76.412,23.712 77.086,23.667 77.147 C 23.621 77.209,21.671 77.871,19.333 78.620 C 13.781 80.397,12.000 81.042,12.000 81.272 C 12.000 81.648,14.146 83.000,14.743 83.000 C 14.885 83.000,15.000 83.060,15.000 83.134 C 15.000 83.671,22.028 85.055,28.000 85.694 C 29.054 85.807,29.954 85.949,30.000 86.009 C 30.046 86.070,32.596 86.361,35.667 86.656 C 46.699 87.718,56.525 88.819,56.667 89.010 C 56.712 89.071,57.200 89.175,57.750 89.240 C 61.622 89.697,73.830 91.781,74.000 92.014 C 74.046 92.076,74.533 92.216,75.083 92.325 C 78.591 93.015,86.031 94.802,86.167 94.986 C 86.212 95.049,87.412 95.425,88.833 95.823 C 92.506 96.852,95.736 97.851,95.833 97.988 C 95.879 98.053,97.154 98.538,98.667 99.067 C 100.179 99.597,101.867 100.188,102.417 100.382 C 102.967 100.576,103.441 100.791,103.470 100.860 C 103.499 100.928,104.136 101.221,104.886 101.510 C 107.301 102.440,110.247 103.708,110.345 103.859 C 110.397 103.939,111.035 104.259,111.762 104.570 C 113.965 105.510,115.699 106.333,116.153 106.655 C 116.390 106.823,117.708 107.541,119.083 108.252 C 120.458 108.963,121.702 109.648,121.846 109.773 C 122.607 110.430,122.482 109.600,121.546 107.781 C 121.112 106.939,120.710 106.212,120.651 106.167 C 120.593 106.121,120.388 105.775,120.197 105.398 C 119.901 104.814,117.270 101.924,115.511 100.250 C 115.222 99.975,114.333 99.106,113.535 98.318 C 112.736 97.531,111.956 96.817,111.800 96.733 C 111.644 96.649,110.926 96.018,110.204 95.331 C 109.482 94.645,108.444 93.733,107.897 93.304 C 107.351 92.876,106.719 92.347,106.494 92.129 C 105.949 91.604,103.037 89.333,102.909 89.333 C 102.853 89.333,102.585 89.111,102.313 88.838 C 102.040 88.566,101.090 87.852,100.200 87.252 C 99.311 86.651,98.283 85.933,97.917 85.656 C 96.761 84.781,92.300 81.910,91.083 81.259 C 90.442 80.915,89.692 80.468,89.417 80.265 C 88.797 79.809,85.784 78.143,85.020 77.835 C 84.709 77.710,84.259 77.443,84.020 77.242 C 83.780 77.040,82.353 76.297,80.849 75.590 C 79.345 74.883,78.020 74.210,77.905 74.095 C 77.789 73.980,77.445 73.792,77.139 73.677 C 76.833 73.562,76.021 73.217,75.333 72.910 C 74.646 72.602,73.671 72.192,73.167 71.998 C 72.662 71.803,72.003 71.500,71.701 71.323 C 71.399 71.147,70.387 70.693,69.451 70.315 C 68.516 69.937,67.124 69.374,66.358 69.064 C 65.593 68.754,64.886 68.500,64.788 68.500 C 64.690 68.500,64.491 68.396,64.346 68.268 C 64.010 67.971,58.286 65.828,57.885 65.849 C 57.719 65.858,56.083 66.342,54.250 66.925 M38.826 91.208 C 37.817 91.856,37.751 91.899,36.542 92.708 C 35.891 93.144,35.318 93.500,35.268 93.500 C 35.107 93.500,33.249 94.743,32.838 95.127 C 32.617 95.332,32.369 95.500,32.286 95.500 C 32.203 95.500,31.502 95.912,30.728 96.417 C 29.955 96.921,29.275 97.333,29.218 97.333 C 29.161 97.333,28.732 97.624,28.265 97.979 C 27.799 98.334,27.050 98.826,26.603 99.071 C 25.273 99.801,23.926 100.693,23.783 100.938 C 23.710 101.064,23.573 101.167,23.479 101.167 C 23.385 101.167,22.789 101.503,22.154 101.913 C 21.520 102.324,20.719 102.805,20.375 102.982 C 20.031 103.159,19.512 103.517,19.222 103.777 C 18.931 104.037,18.406 104.397,18.055 104.576 C 17.704 104.755,16.254 105.660,14.833 106.587 C 13.412 107.513,11.871 108.477,11.408 108.728 C 10.945 108.979,10.314 109.399,10.006 109.661 C 9.699 109.924,9.253 110.238,9.015 110.358 C 8.778 110.479,7.978 110.954,7.239 111.414 C 5.484 112.506,5.539 112.469,4.358 113.296 C 3.798 113.687,3.207 114.058,3.045 114.120 C 2.113 114.473,-0.170 116.219,0.034 116.423 C 0.153 116.542,3.877 115.982,4.000 115.827 C 4.173 115.608,16.684 113.963,23.000 113.327 C 24.971 113.129,26.733 112.904,26.917 112.827 C 27.442 112.605,37.231 111.832,44.750 111.419 C 59.539 110.605,75.242 110.723,89.083 111.753 C 93.882 112.111,99.362 112.663,99.750 112.829 C 99.933 112.908,101.396 113.133,103.000 113.329 C 108.565 114.011,118.126 115.577,118.333 115.840 C 118.379 115.899,118.904 116.039,119.500 116.152 C 120.096 116.265,121.772 116.619,123.226 116.939 C 124.679 117.259,125.905 117.484,125.949 117.440 C 126.172 117.216,125.727 116.627,124.962 116.134 C 122.544 114.576,121.987 114.237,120.870 113.639 C 120.203 113.281,119.515 112.867,119.342 112.719 C 119.168 112.570,117.951 111.898,116.638 111.226 C 115.325 110.553,114.149 109.918,114.026 109.813 C 113.902 109.709,112.665 109.105,111.276 108.472 C 109.886 107.839,108.150 107.028,107.417 106.669 C 105.957 105.955,104.764 105.458,102.341 104.552 C 101.466 104.225,100.712 103.908,100.667 103.847 C 100.558 103.703,97.870 102.728,94.833 101.731 C 93.504 101.295,92.379 100.891,92.333 100.833 C 92.287 100.775,91.837 100.610,91.333 100.465 C 90.829 100.321,89.742 100.003,88.917 99.760 C 88.092 99.517,86.404 99.055,85.167 98.733 C 83.929 98.411,82.692 98.045,82.417 97.919 C 81.892 97.680,74.947 96.119,71.667 95.504 C 70.612 95.307,69.600 95.076,69.417 94.991 C 68.549 94.589,52.032 92.167,50.158 92.167 C 49.888 92.167,49.667 92.104,49.667 92.028 C 49.667 91.951,49.573 91.884,49.458 91.879 C 49.344 91.873,47.046 91.636,44.351 91.351 C 41.657 91.066,39.443 90.833,39.431 90.833 C 39.420 90.833,39.148 91.002,38.826 91.208 M31.917 136.281 C 31.642 136.316,31.267 136.409,31.083 136.486 C 30.900 136.564,30.225 136.825,29.583 137.067 C 22.336 139.800,22.510 151.468,29.833 153.843 C 32.185 154.606,35.234 154.384,36.900 153.327 C 37.864 152.715,37.833 152.712,37.833 153.417 L 37.833 154.000 39.083 154.000 L 40.333 154.000 40.333 149.496 L 40.333 144.992 37.708 145.037 L 35.083 145.083 35.034 146.292 L 34.985 147.500 36.409 147.500 L 37.833 147.500 37.833 148.657 L 37.833 149.815 36.890 150.491 C 36.370 150.863,35.845 151.167,35.723 151.167 C 35.600 151.167,35.500 151.233,35.500 151.314 C 35.500 151.948,31.304 151.966,30.833 151.333 C 30.787 151.272,30.399 151.017,29.969 150.768 C 26.413 148.703,26.155 142.695,29.516 140.206 C 29.920 139.907,30.351 139.579,30.474 139.477 C 31.424 138.689,35.794 138.691,36.328 139.479 C 36.530 139.777,38.134 140.548,38.367 140.459 C 38.812 140.288,39.714 138.508,39.492 138.240 C 38.576 137.136,34.156 135.993,31.917 136.281 M154.250 136.271 C 153.975 136.312,153.600 136.412,153.417 136.494 C 153.233 136.576,152.783 136.732,152.417 136.840 C 151.121 137.223,148.667 138.762,148.667 139.193 C 148.667 139.282,148.482 139.598,148.256 139.894 C 147.320 141.122,146.642 142.987,146.545 144.602 C 146.456 146.090,146.728 148.333,146.998 148.333 C 147.068 148.333,147.169 148.540,147.224 148.792 C 147.278 149.044,147.569 149.654,147.870 150.148 C 148.170 150.642,148.498 151.185,148.598 151.355 C 150.209 154.101,156.278 155.193,159.907 153.391 C 162.010 152.346,162.690 151.523,162.011 150.844 C 161.834 150.667,161.563 150.330,161.409 150.094 C 161.048 149.545,160.788 149.556,160.032 150.153 C 156.039 153.306,150.831 151.680,149.583 146.890 C 149.220 145.495,149.467 142.724,149.990 142.333 C 150.051 142.287,150.267 141.976,150.471 141.641 C 150.790 141.115,151.167 140.741,152.504 139.621 C 153.913 138.442,156.972 138.601,159.225 139.972 C 160.658 140.843,160.685 140.841,161.234 139.833 C 161.483 139.375,161.758 139.000,161.844 139.000 C 162.923 139.000,159.912 137.029,158.417 136.757 C 158.051 136.691,157.712 136.573,157.665 136.497 C 157.564 136.334,154.981 136.163,154.250 136.271 M207.458 136.278 C 207.115 136.319,206.833 136.416,206.833 136.492 C 206.833 136.567,206.552 136.681,206.208 136.745 C 205.345 136.904,204.195 137.427,203.500 137.977 C 203.179 138.231,202.792 138.485,202.640 138.542 C 202.021 138.772,200.467 141.551,200.254 142.808 C 200.190 143.188,200.075 143.537,199.999 143.584 C 199.822 143.693,199.817 146.804,199.995 146.913 C 200.068 146.959,200.179 147.333,200.241 147.745 C 201.091 153.417,208.848 156.222,214.136 152.770 C 215.773 151.702,217.500 149.030,217.500 147.567 C 217.500 147.454,217.592 147.330,217.705 147.293 C 217.977 147.202,217.996 143.372,217.726 143.200 C 217.625 143.136,217.486 142.821,217.417 142.500 C 216.872 139.957,214.201 137.287,211.667 136.751 C 211.346 136.684,211.004 136.565,210.908 136.487 C 210.695 136.317,208.327 136.173,207.458 136.278 M252.667 136.216 C 252.621 136.263,252.321 136.326,252.000 136.355 C 251.679 136.385,251.379 136.451,251.333 136.501 C 251.287 136.551,250.800 136.728,250.250 136.894 C 246.712 137.959,244.687 141.014,244.673 145.309 C 244.653 151.057,248.436 154.636,254.155 154.281 C 256.805 154.116,260.345 152.529,260.329 151.513 C 260.323 151.143,259.210 149.667,258.937 149.667 C 258.750 149.667,256.847 150.826,256.247 151.305 C 255.449 151.943,251.167 151.969,251.167 151.336 C 251.167 151.276,250.832 151.059,250.424 150.855 C 245.883 148.587,246.832 140.559,251.818 139.055 C 253.050 138.683,256.124 138.962,256.500 139.479 C 256.776 139.860,258.359 140.681,258.643 140.591 C 259.034 140.467,259.928 138.821,259.794 138.472 C 259.665 138.135,257.110 136.855,256.310 136.727 C 255.956 136.670,255.667 136.571,255.667 136.506 C 255.667 136.442,255.573 136.383,255.458 136.376 C 255.344 136.369,254.688 136.310,254.000 136.246 C 253.313 136.182,252.713 136.168,252.667 136.216 M269.750 136.271 C 269.475 136.312,269.100 136.412,268.917 136.494 C 268.733 136.576,268.283 136.734,267.917 136.844 C 260.097 139.200,260.040 151.233,267.837 153.826 C 274.041 155.890,280.000 151.661,280.000 145.193 C 280.000 143.120,279.523 141.781,277.928 139.378 C 277.210 138.296,274.505 136.683,273.389 136.671 C 273.190 136.668,273.003 136.595,272.972 136.507 C 272.910 136.329,270.531 136.154,269.750 136.271 M335.958 136.279 C 335.615 136.320,335.333 136.424,335.333 136.510 C 335.333 136.596,335.218 136.667,335.078 136.667 C 334.095 136.667,332.066 138.402,331.651 139.597 C 330.894 141.774,331.547 143.586,333.583 144.963 C 333.950 145.211,334.287 145.463,334.333 145.524 C 334.379 145.584,335.204 145.979,336.167 146.401 C 339.890 148.032,340.691 149.486,338.809 151.195 C 338.039 151.894,335.564 152.040,334.948 151.424 C 334.828 151.304,334.429 151.052,334.062 150.865 C 333.695 150.678,333.296 150.406,333.177 150.262 C 332.708 149.697,331.913 150.218,331.231 151.537 C 330.888 152.200,331.301 152.659,332.929 153.425 C 336.787 155.241,341.516 154.078,342.292 151.123 C 342.822 149.102,342.288 146.666,341.191 146.095 C 340.949 145.968,340.579 145.682,340.371 145.459 C 339.993 145.055,339.760 144.938,336.917 143.735 C 333.748 142.394,333.291 140.184,335.962 139.118 C 336.962 138.718,338.836 138.870,339.377 139.395 C 339.811 139.815,340.646 140.333,340.888 140.333 C 341.160 140.333,342.167 138.624,342.167 138.164 C 342.167 137.265,338.080 136.024,335.958 136.279 M349.208 136.277 C 348.910 136.320,348.667 136.425,348.667 136.511 C 348.667 136.596,348.564 136.667,348.438 136.667 C 344.526 136.667,343.462 143.900,347.183 145.197 C 347.449 145.290,347.667 145.420,347.667 145.486 C 347.667 145.601,348.443 145.981,350.583 146.916 C 352.992 147.967,353.588 149.394,352.295 151.016 C 351.624 151.859,349.565 152.092,348.417 151.456 C 348.142 151.303,347.692 151.070,347.417 150.938 C 347.142 150.805,346.708 150.533,346.453 150.333 C 345.848 149.856,345.624 149.966,344.904 151.093 L 344.304 152.030 344.688 152.439 C 345.716 153.534,348.514 154.414,350.578 154.292 C 353.959 154.093,355.503 152.670,355.635 149.634 C 355.761 146.730,354.617 145.461,350.416 143.844 C 347.630 142.771,346.896 141.328,348.312 139.705 C 349.329 138.540,351.436 138.585,353.217 139.811 C 353.635 140.098,354.078 140.333,354.203 140.333 C 354.564 140.333,355.556 138.185,355.324 137.905 C 355.039 137.563,353.168 136.667,352.737 136.667 C 352.530 136.667,352.336 136.592,352.306 136.501 C 352.243 136.316,350.046 136.157,349.208 136.277 M372.501 136.280 C 372.181 136.324,371.881 136.416,371.835 136.483 C 371.788 136.550,371.308 136.729,370.767 136.881 C 363.810 138.828,362.762 149.473,369.167 153.139 C 370.664 153.996,371.684 154.237,373.833 154.241 C 377.977 154.248,380.273 152.759,382.144 148.849 L 382.750 147.583 382.750 145.250 C 382.750 142.739,382.421 141.609,381.237 140.053 C 381.015 139.761,380.833 139.450,380.833 139.362 C 380.833 138.846,378.151 137.166,376.750 136.804 C 376.292 136.686,375.877 136.534,375.828 136.468 C 375.714 136.313,373.265 136.175,372.501 136.280 M0.000 145.333 L 0.000 154.000 1.333 154.000 L 2.667 154.000 2.667 150.333 L 2.667 146.667 6.917 146.667 L 11.167 146.667 11.167 150.333 L 11.167 154.000 12.583 154.000 L 14.000 154.000 14.000 145.333 L 14.000 136.667 12.583 136.667 L 11.167 136.667 11.167 140.417 L 11.167 144.167 6.917 144.167 L 2.667 144.167 2.667 140.417 L 2.667 136.667 1.333 136.667 L 0.000 136.667 0.000 145.333 M18.333 145.333 L 18.333 154.000 19.750 154.000 L 21.167 154.000 21.167 145.333 L 21.167 136.667 19.750 136.667 L 18.333 136.667 18.333 145.333 M43.833 145.333 L 43.833 154.000 45.167 154.000 L 46.500 154.000 46.500 150.333 L 46.500 146.667 50.833 146.667 L 55.167 146.667 55.167 150.333 L 55.167 154.000 56.500 154.000 L 57.833 154.000 57.833 145.333 L 57.833 136.667 56.500 136.667 L 55.167 136.667 55.167 140.417 L 55.167 144.167 50.833 144.167 L 46.500 144.167 46.500 140.417 L 46.500 136.667 45.167 136.667 L 43.833 136.667 43.833 145.333 M62.333 145.333 L 62.333 154.000 67.667 154.000 L 73.000 154.000 73.000 152.833 L 73.000 151.667 69.083 151.667 L 65.167 151.667 65.167 149.083 L 65.167 146.500 68.167 146.500 L 71.167 146.500 71.167 145.250 L 71.167 144.000 68.167 144.000 L 65.167 144.000 65.167 141.500 L 65.167 139.000 68.833 139.000 L 72.500 139.000 72.500 137.833 L 72.500 136.667 67.417 136.667 L 62.333 136.667 62.333 145.333 M76.167 145.318 L 76.167 154.000 77.500 154.000 L 78.833 154.000 78.833 150.667 L 78.833 147.333 80.625 147.334 L 82.417 147.335 83.747 150.001 C 84.479 151.467,85.139 152.667,85.215 152.667 C 85.291 152.667,85.307 152.742,85.250 152.833 C 85.193 152.925,85.217 153.000,85.303 153.000 C 85.389 153.000,85.553 153.225,85.667 153.500 L 85.874 154.000 87.437 154.000 C 88.577 154.000,89.000 153.944,88.999 153.792 C 88.999 153.570,88.375 152.474,88.169 152.333 C 88.102 152.287,87.863 151.875,87.638 151.417 C 86.470 149.036,85.463 147.177,85.245 146.996 C 84.879 146.692,84.936 146.592,85.659 146.273 C 88.074 145.208,88.613 140.084,86.528 138.020 C 85.373 136.877,85.021 136.803,80.292 136.714 L 76.167 136.637 76.167 145.318 M98.000 145.333 L 98.000 154.000 103.333 154.000 L 108.667 154.000 108.667 152.833 L 108.667 151.667 104.750 151.667 L 100.833 151.667 100.833 149.083 L 100.833 146.500 103.917 146.500 L 107.000 146.500 107.000 145.250 L 107.000 144.000 103.917 144.000 L 100.833 144.000 100.833 141.500 L 100.833 139.000 104.583 139.000 L 108.333 139.000 108.333 137.833 L 108.333 136.667 103.167 136.667 L 98.000 136.667 98.000 145.333 M112.000 145.348 L 112.000 154.029 116.292 153.961 C 120.956 153.887,121.322 153.823,123.207 152.754 C 124.539 151.999,125.984 149.981,126.280 148.462 C 126.338 148.162,126.468 147.863,126.568 147.798 C 126.841 147.619,126.816 142.967,126.542 142.875 C 126.427 142.837,126.333 142.630,126.333 142.416 C 126.333 141.848,125.060 139.456,124.445 138.868 C 122.667 137.169,120.640 136.667,115.569 136.667 L 112.000 136.667 112.000 145.348 M129.868 143.208 L 129.917 149.750 130.360 150.750 C 132.436 155.433,140.877 155.615,142.932 151.022 C 143.566 149.605,143.664 148.450,143.665 142.375 L 143.667 136.667 142.258 136.667 L 140.849 136.667 140.799 142.888 L 140.750 149.110 140.250 149.909 C 138.522 152.670,134.298 152.481,132.978 149.583 C 132.702 148.977,132.674 148.358,132.670 142.792 L 132.667 136.667 131.243 136.667 L 129.819 136.667 129.868 143.208 M169.187 137.035 C 169.108 137.245,168.763 138.242,168.421 139.250 C 168.079 140.258,167.734 141.162,167.656 141.259 C 167.514 141.434,166.983 142.937,165.573 147.155 C 165.161 148.386,164.752 149.480,164.664 149.586 C 164.508 149.775,163.167 153.621,163.167 153.881 C 163.167 153.954,163.817 153.991,164.612 153.965 L 166.057 153.917 166.820 151.583 L 167.583 149.250 170.740 149.250 L 173.897 149.250 174.672 151.583 L 175.447 153.917 176.890 153.965 C 177.904 153.999,178.333 153.955,178.333 153.819 C 178.333 153.533,176.629 148.598,176.497 148.500 C 176.434 148.454,175.761 146.579,175.000 144.333 C 174.239 142.087,173.567 140.212,173.507 140.167 C 173.447 140.121,173.136 139.333,172.816 138.417 L 172.236 136.750 170.783 136.702 C 169.401 136.656,169.323 136.672,169.187 137.035 M177.333 137.833 L 177.333 139.000 180.250 139.000 L 183.167 139.000 183.167 146.500 L 183.167 154.000 184.583 154.000 L 186.000 154.000 186.000 146.500 L 186.000 139.000 188.917 139.000 L 191.833 139.000 191.833 137.833 L 191.833 136.667 184.583 136.667 L 177.333 136.667 177.333 137.833 M193.833 145.333 L 193.833 154.000 195.250 154.000 L 196.667 154.000 196.667 145.333 L 196.667 136.667 195.250 136.667 L 193.833 136.667 193.833 145.333 M221.000 145.333 L 221.000 154.000 222.415 154.000 L 223.829 154.000 223.873 147.721 L 223.917 141.442 224.250 142.096 C 224.433 142.456,225.418 143.950,226.439 145.417 C 227.459 146.883,228.410 148.308,228.552 148.583 C 228.694 148.858,229.045 149.337,229.333 149.648 C 229.621 149.958,230.077 150.596,230.347 151.065 C 230.618 151.533,231.159 152.367,231.551 152.917 L 232.263 153.917 233.632 153.965 L 235.000 154.013 235.000 145.340 L 235.000 136.667 233.750 136.667 L 232.500 136.667 232.500 143.000 C 232.500 149.505,232.472 149.775,231.917 148.708 C 231.588 148.075,230.018 145.714,228.510 143.583 C 228.056 142.942,227.680 142.355,227.676 142.281 C 227.665 142.115,226.890 141.054,226.414 140.553 C 226.224 140.354,225.961 139.979,225.829 139.720 C 225.697 139.462,225.188 138.669,224.697 137.958 L 223.806 136.667 222.403 136.667 L 221.000 136.667 221.000 145.333 M283.928 137.369 C 283.876 137.762,283.680 140.183,283.492 142.750 C 283.304 145.317,283.042 148.752,282.909 150.385 C 282.776 152.018,282.667 153.499,282.667 153.677 C 282.667 153.971,282.792 154.000,284.056 154.000 L 285.445 154.000 285.639 151.292 C 285.746 149.802,285.917 147.196,286.018 145.500 C 286.232 141.949,286.287 141.660,286.578 142.583 C 286.820 143.350,287.947 145.922,288.258 146.417 C 288.374 146.600,288.634 147.162,288.836 147.667 C 289.039 148.171,289.434 149.127,289.716 149.792 L 290.227 151.000 291.488 151.000 L 292.750 150.999 293.397 149.458 C 293.753 148.610,294.091 147.879,294.149 147.833 C 294.357 147.667,296.490 142.595,296.521 142.192 C 296.562 141.645,296.809 143.439,296.821 144.375 C 296.828 144.902,296.894 145.333,296.969 145.333 C 297.044 145.333,297.197 146.740,297.311 148.458 C 297.424 150.177,297.562 152.127,297.616 152.792 L 297.716 154.000 299.127 154.000 L 300.538 154.000 300.440 153.125 C 300.387 152.644,300.298 151.537,300.243 150.667 C 300.189 149.796,300.081 148.933,300.003 148.750 C 299.926 148.567,299.704 146.167,299.510 143.417 C 299.316 140.667,299.113 138.023,299.059 137.542 L 298.962 136.667 297.516 136.667 L 296.071 136.667 295.345 138.542 C 294.946 139.573,294.450 140.717,294.244 141.083 C 293.839 141.801,291.674 147.207,291.655 147.545 C 291.649 147.658,291.558 147.563,291.452 147.333 C 291.346 147.104,291.216 146.879,291.163 146.833 C 291.110 146.787,290.592 145.550,290.012 144.083 C 289.431 142.617,288.766 141.004,288.534 140.500 C 288.301 139.996,287.837 138.946,287.502 138.167 L 286.894 136.750 285.458 136.702 L 284.022 136.654 283.928 137.369 M305.000 136.736 C 305.000 136.987,303.826 152.270,303.748 153.042 L 303.650 154.000 305.075 154.000 C 306.103 154.000,306.501 153.942,306.502 153.792 C 306.504 153.677,306.691 151.071,306.918 148.000 C 307.145 144.929,307.336 142.267,307.342 142.083 C 307.348 141.900,307.523 142.237,307.731 142.833 C 307.940 143.429,308.341 144.367,308.623 144.917 C 309.123 145.890,309.519 146.793,310.684 149.623 L 311.250 150.996 312.507 150.998 L 313.764 151.000 314.575 149.292 C 315.021 148.352,315.666 146.908,316.007 146.083 C 316.348 145.258,316.824 144.143,317.064 143.604 C 317.304 143.066,317.500 142.522,317.500 142.396 C 317.500 142.270,317.570 142.167,317.654 142.167 C 317.739 142.167,317.843 142.035,317.885 141.875 C 317.927 141.715,317.976 142.221,317.994 143.000 C 318.013 143.779,318.190 146.554,318.389 149.167 L 318.750 153.917 320.150 153.965 L 321.549 154.014 321.452 152.882 C 321.398 152.259,321.222 149.950,321.061 147.750 C 320.900 145.550,320.719 143.712,320.659 143.667 C 320.600 143.621,320.458 142.196,320.346 140.500 C 320.064 136.282,320.244 136.667,318.559 136.667 L 317.155 136.667 316.809 137.458 C 316.619 137.894,316.295 138.700,316.088 139.250 C 315.458 140.927,314.761 142.579,314.646 142.667 C 314.530 142.755,313.819 144.456,313.060 146.462 L 312.601 147.675 312.276 146.796 C 312.097 146.312,311.893 145.878,311.822 145.831 C 311.751 145.785,311.585 145.447,311.454 145.081 C 310.960 143.704,309.288 139.698,308.656 138.378 C 308.295 137.624,308.000 136.930,308.000 136.837 C 308.000 136.734,307.409 136.667,306.500 136.667 C 305.675 136.667,305.000 136.698,305.000 136.736 M325.333 145.333 L 325.333 154.000 326.667 154.000 L 328.000 154.000 328.000 145.333 L 328.000 136.667 326.667 136.667 L 325.333 136.667 325.333 145.333 M359.000 145.333 L 359.000 154.000 360.333 154.000 L 361.667 154.000 361.667 145.333 L 361.667 136.667 360.333 136.667 L 359.000 136.667 359.000 145.333 M386.000 145.333 L 386.000 154.000 387.415 154.000 L 388.829 154.000 388.873 147.726 L 388.917 141.451 389.323 142.267 C 389.702 143.028,390.627 144.418,391.140 144.998 C 391.262 145.137,391.937 146.117,392.640 147.176 C 393.342 148.235,394.194 149.472,394.534 149.926 C 394.873 150.379,395.248 150.937,395.367 151.166 C 395.635 151.681,396.637 153.121,397.079 153.625 C 397.367 153.954,397.568 154.000,398.704 154.000 L 400.000 154.000 400.000 145.333 L 400.000 136.667 398.659 136.667 L 397.318 136.667 397.368 143.072 C 397.398 147.096,397.359 149.374,397.261 149.199 C 397.176 149.046,397.043 148.845,396.966 148.752 C 396.889 148.659,396.252 147.683,395.549 146.583 C 394.847 145.483,394.217 144.560,394.150 144.532 C 394.082 144.504,393.709 143.979,393.320 143.366 C 392.439 141.973,391.333 140.344,391.040 140.006 C 390.919 139.865,390.361 139.056,389.800 138.208 L 388.782 136.667 387.391 136.667 L 386.000 136.667 386.000 145.333 M211.226 139.322 C 213.734 140.536,215.428 143.592,215.014 146.157 C 214.705 148.080,212.994 150.562,211.658 151.028 C 211.388 151.122,211.167 151.257,211.167 151.328 C 211.167 151.608,209.625 151.874,208.441 151.799 C 206.363 151.665,204.261 150.137,203.483 148.195 C 203.274 147.675,203.024 147.196,202.927 147.131 C 202.684 146.967,202.690 143.526,202.934 143.369 C 203.035 143.303,203.206 142.987,203.313 142.667 C 204.294 139.729,208.444 137.975,211.226 139.322 M272.762 139.110 C 273.214 139.262,273.621 139.431,273.667 139.485 C 273.712 139.540,274.082 139.809,274.487 140.084 C 274.892 140.359,275.439 140.883,275.701 141.250 C 275.963 141.617,276.274 142.032,276.391 142.173 C 278.309 144.489,276.759 149.356,273.520 151.190 C 272.192 151.941,268.667 152.048,268.667 151.337 C 268.667 151.271,268.361 151.080,267.988 150.911 C 264.135 149.174,263.963 141.816,267.730 139.886 C 268.016 139.740,268.287 139.564,268.333 139.496 C 268.735 138.897,271.432 138.662,272.762 139.110 M375.607 139.100 C 376.634 139.449,378.053 140.507,378.670 141.385 C 378.940 141.769,379.231 142.168,379.318 142.271 C 380.412 143.581,380.148 147.045,378.805 149.003 C 375.242 154.194,367.833 151.679,367.833 145.279 C 367.833 140.966,371.805 137.809,375.607 139.100 M83.400 139.232 C 85.385 140.062,85.541 143.302,83.649 144.417 C 83.182 144.692,82.714 144.760,80.958 144.808 L 78.833 144.867 78.833 141.933 L 78.833 139.000 80.839 139.000 C 82.176 139.000,83.029 139.077,83.400 139.232 M120.369 139.542 C 125.085 141.762,125.215 148.699,120.585 151.050 C 119.636 151.532,119.458 151.562,117.208 151.628 L 114.833 151.698 114.833 145.333 L 114.833 138.968 117.125 139.031 C 119.193 139.087,119.510 139.137,120.369 139.542 M171.930 143.553 L 172.947 146.750 170.784 146.797 C 169.594 146.822,168.598 146.820,168.569 146.792 C 168.541 146.763,168.971 145.355,169.525 143.662 C 170.079 141.969,170.564 140.479,170.603 140.351 C 170.734 139.924,170.906 140.339,171.930 143.553 " stroke="none" fill="#0c446c" fill-rule="evenodd"></path><path id="path2" d="" stroke="none" fill="#d07054" fill-rule="evenodd"></path><path id="path3" d="" stroke="none" fill="#407054" fill-rule="evenodd"></path><path id="path4" d="" stroke="none" fill="#0c7454" fill-rule="evenodd"></path></g></svg>